# xmcd CD database file
#
# Track frame offsets:
#	182
#	25520
#	50145
#	74720
#	106732
#	146420
#	179657
#	209257
#	235357
#
# Disc length: 3490 seconds
#
# Revision: 2
# Processed by: cddbd v1.5.2PL0 Copyright (c) Steve Scherf et al.
# Submitted via: CDex 1.85
#
DISCID=840da009
DTITLE=Paolo Paliaga - Horizon Quartet - Azul
DYEAR=1900
DGENRE=Jazz
TTITLE0=1 - Appunti di viaggio
TTITLE1=2 - Catalina
TTITLE2=3 - Una vez mas
TTITLE3=4 - Vento da Nord-Ovest
TTITLE4=5 - Meaning of the Blues
TTITLE5=6 - Pajaro azul
TTITLE6=7 - Against the wind
TTITLE7=8 - MKJ
TTITLE8=9 - Non lo dire Raul
EXTD=
EXTT0=
EXTT1=
EXTT2=
EXTT3=
EXTT4=
EXTT5=
EXTT6=
EXTT7=
EXTT8=
PLAYORDER=
